<svg width="18" height="18" viewBox="0 0 18 18" fill="none" xmlns="http://www.w3.org/2000/svg">
<path d="M4 14.3663C4.21933 14.3663 4.40233 14.2837 4.549 14.1187C4.69567 13.953 4.769 13.7468 4.769 13.5C4.769 13.2532 4.69567 13.0474 4.549 12.8824C4.40233 12.7174 4.21933 12.6349 4 12.6349C3.78067 12.6349 3.59767 12.7174 3.451 12.8824C3.30433 13.0474 3.231 13.2532 3.231 13.5C3.231 13.7468 3.30433 13.9526 3.451 14.1176C3.59767 14.2826 3.78067 14.3651 4 14.3651M3.5 10.9901H4.5V3.9375H3.5V10.9901ZM8.5 14.0625H14.5V12.9375H8.5V14.0625ZM8.5 9.5625H14.5V8.4375H8.5V9.5625ZM8.5 5.0625H14.5V3.9375H8.5V5.0625ZM1.615 18C1.155 18 0.771 17.8268 0.463 17.4803C0.154333 17.133 0 16.7006 0 16.1831V1.81687C0 1.29937 0.154333 0.867375 0.463 0.520875C0.771 0.173625 1.155 0 1.615 0H16.385C16.845 0 17.229 0.173625 17.537 0.520875C17.8457 0.867375 18 1.29937 18 1.81687V16.1831C18 16.7006 17.846 17.1326 17.538 17.4791C17.2293 17.8264 16.845 18 16.385 18H1.615ZM1.615 16.875H16.385C16.5383 16.875 16.6793 16.803 16.808 16.659C16.936 16.5143 17 16.3556 17 16.1831V1.81687C17 1.64437 16.936 1.48575 16.808 1.341C16.6793 1.197 16.5383 1.125 16.385 1.125H1.615C1.46167 1.125 1.32067 1.197 1.192 1.341C1.064 1.48575 1 1.64437 1 1.81687V16.1831C1 16.3556 1.064 16.5143 1.192 16.659C1.32067 16.803 1.46167 16.875 1.615 16.875Z" fill="black"/>
</svg>
