<svg width="18" height="18" viewBox="0 0 18 18" fill="none" xmlns="http://www.w3.org/2000/svg">
<path d="M0 7.63761L4.1612 0L8.32434 7.63761H0ZM4.17972 18C3.21969 18 2.40786 17.6511 1.74423 16.9532C1.07995 16.2539 0.747806 15.4021 0.747806 14.3977C0.747806 13.3769 1.07995 12.5183 1.74423 11.8218C2.40721 11.1253 3.21904 10.777 4.17972 10.777C5.13975 10.777 5.95158 11.1259 6.61521 11.8238C7.27819 12.5231 7.60968 13.378 7.60968 14.3885C7.60968 15.3991 7.27819 16.2536 6.61521 16.9522C5.95223 17.6507 5.13975 18 4.17972 18ZM4.1807 16.9737C4.86643 16.9737 5.44719 16.7236 5.92298 16.2235C6.39877 15.7227 6.63666 15.111 6.63666 14.3885C6.63666 13.666 6.39877 13.0547 5.92298 12.5545C5.44719 12.0537 4.86643 11.8033 4.1807 11.8033C3.49431 11.8033 2.91323 12.0537 2.43744 12.5545C1.96165 13.0554 1.72376 13.6663 1.72376 14.3875C1.72376 15.11 1.96165 15.7216 2.43744 16.2225C2.91323 16.7233 3.49431 16.9734 4.1807 16.9727M1.68281 6.61132H6.65908L4.1612 2.08233L1.68281 6.61132ZM10.481 18V10.777H17.3438V18H10.481ZM11.456 16.9737H16.3689V11.8033H11.456V16.9737ZM13.9129 7.63863C13.311 7.1337 12.7598 6.66469 12.2593 6.2316C11.7589 5.79851 11.3279 5.37807 10.9665 4.97029C10.6058 4.56252 10.3253 4.15714 10.1251 3.75415C9.92493 3.35184 9.82483 2.93038 9.82483 2.48977C9.82483 1.8781 10.0153 1.37283 10.3962 0.973944C10.7764 0.575061 11.261 0.37562 11.8499 0.37562C12.2385 0.37562 12.6019 0.475854 12.9399 0.676321C13.2779 0.877473 13.6019 1.1792 13.9119 1.5815C14.222 1.19152 14.5525 0.89321 14.9035 0.686584C15.2545 0.479275 15.6178 0.37562 15.9935 0.37562C16.5655 0.37562 17.0429 0.585666 17.4257 1.00576C17.8086 1.42585 18 1.94002 18 2.54826C18 2.97588 17.8999 3.38776 17.6997 3.78391C17.4995 4.18074 17.219 4.57962 16.8583 4.98056C16.4969 5.38149 16.066 5.79851 15.5655 6.2316C15.065 6.66469 14.5138 7.1337 13.9119 7.63863M13.9119 6.30652C15.0448 5.3856 15.8469 4.6388 16.3182 4.06614C16.7894 3.49416 17.025 2.9858 17.025 2.54108C17.025 2.21267 16.9266 1.94105 16.7296 1.72621C16.5327 1.51001 16.2847 1.4019 15.9857 1.4019C15.7758 1.4019 15.571 1.46861 15.3715 1.60203C15.1719 1.73545 14.8963 1.98791 14.5447 2.35943L13.9119 3.01214L13.2801 2.35943C12.9155 1.97491 12.6373 1.71937 12.4456 1.59279C12.2532 1.46553 12.051 1.4019 11.8391 1.4019C11.5271 1.4019 11.2759 1.50009 11.0855 1.69645C10.895 1.89213 10.7998 2.16033 10.7998 2.50105C10.7998 2.97246 11.0354 3.49416 11.5067 4.06614C11.9779 4.6388 12.7797 5.3856 13.9119 6.30652Z" fill="black"/>
</svg>
