<svg width="16" height="16" viewBox="0 0 16 16" fill="none" xmlns="http://www.w3.org/2000/svg">
<path fill-rule="evenodd" clip-rule="evenodd" d="M7.6261 9.63672L12.6776 14.6824C12.9456 14.9502 13.3092 15.1006 13.6882 15.1006C14.0673 15.1006 14.4309 14.9502 14.6989 14.6824C14.967 14.4147 15.1176 14.0516 15.1176 13.6729C15.1176 13.2943 14.967 12.9311 14.6989 12.6634L9.64554 7.61768L14.698 2.57196C14.8306 2.43939 14.9358 2.28202 15.0076 2.10883C15.0794 1.93564 15.1163 1.75002 15.1163 1.56258C15.1162 1.37514 15.0792 1.18954 15.0074 1.01638C14.9355 0.843227 14.8302 0.685902 14.6975 0.553392C14.5648 0.420882 14.4072 0.315782 14.2338 0.244092C14.0604 0.172402 13.8746 0.135526 13.687 0.135571C13.4993 0.135615 13.3135 0.172578 13.1401 0.244349C12.9668 0.316121 12.8093 0.421296 12.6766 0.553868L7.6261 5.59958L2.57463 0.553868C2.44288 0.417493 2.28527 0.308691 2.11098 0.233811C1.93669 0.15893 1.74921 0.119471 1.55949 0.117736C1.36977 0.116 1.1816 0.152023 1.00597 0.223702C0.830336 0.295382 0.670753 0.401282 0.536531 0.535224C0.40231 0.669167 0.296138 0.828468 0.224211 1.00383C0.152285 1.1792 0.116043 1.36712 0.117602 1.55662C0.11916 1.74613 0.158488 1.93343 0.233289 2.10759C0.30809 2.28175 0.416868 2.43929 0.553274 2.57101L5.60665 7.61768L0.554227 12.6643C0.417821 12.7961 0.309043 12.9536 0.234242 13.1278C0.159441 13.3019 0.120113 13.4892 0.118554 13.6787C0.116996 13.8682 0.153237 14.0562 0.225164 14.2315C0.297091 14.4069 0.403262 14.5662 0.537484 14.7001C0.671705 14.8341 0.831289 14.94 1.00692 15.0116C1.18256 15.0833 1.37072 15.1194 1.56044 15.1176C1.75016 15.1159 1.93764 15.0764 2.11193 15.0015C2.28622 14.9267 2.44383 14.8179 2.57558 14.6815L7.6261 9.63672Z" fill="black"/>
</svg>
