<svg width="225" height="59" viewBox="0 0 225 59" fill="none" xmlns="http://www.w3.org/2000/svg">
<mask id="path-1-outside-1_558_5349" maskUnits="userSpaceOnUse" x="4" y="12" width="218" height="38" fill="black">
<rect fill="white" x="4" y="12" width="218" height="38"/>
<path d="M12.5469 35.3779V48H5.34473V13.6006H30.7109V19.167H12.5469V29.8115H30.1494V35.3779H12.5469ZM50.2178 48.4883C47.0602 48.4883 44.391 47.9756 42.21 46.9502C40.029 45.9085 38.377 44.3949 37.2539 42.4092C36.1309 40.4072 35.5693 37.974 35.5693 35.1094V13.6006H42.7715V34.5479C42.7715 37.266 43.4144 39.333 44.7002 40.749C46.0023 42.1488 47.9066 42.8486 50.4131 42.8486C52.9847 42.8486 54.9622 42.1162 56.3457 40.6514C57.7292 39.1702 58.4209 37.0544 58.4209 34.3037V13.6006H65.623V34.7432C65.623 37.6403 65.0127 40.1143 63.792 42.165C62.5876 44.2158 60.8379 45.7865 58.543 46.877C56.248 47.9512 53.473 48.4883 50.2178 48.4883ZM78.4404 27.7119V48H72.0439V13.6006H80.2715L95.4814 40.3096C95.1885 37.8356 95.042 35.5977 95.042 33.5957V13.6006H101.438V48H92.9912L78.001 21.5107C78.1475 22.7965 78.2533 23.9603 78.3184 25.002C78.3997 26.0273 78.4404 26.9307 78.4404 27.7119ZM119.48 32.0576V38.0146H106.785V32.0576H119.48ZM132.029 35.3779V48H124.827V13.6006H150.193V19.167H132.029V29.8115H149.632V35.3779H132.029ZM169.7 48.4883C166.543 48.4883 163.873 47.9756 161.692 46.9502C159.511 45.9085 157.859 44.3949 156.736 42.4092C155.613 40.4072 155.052 37.974 155.052 35.1094V13.6006H162.254V34.5479C162.254 37.266 162.897 39.333 164.183 40.749C165.485 42.1488 167.389 42.8486 169.896 42.8486C172.467 42.8486 174.445 42.1162 175.828 40.6514C177.212 39.1702 177.903 37.0544 177.903 34.3037V13.6006H185.105V34.7432C185.105 37.6403 184.495 40.1143 183.274 42.165C182.07 44.2158 180.32 45.7865 178.025 46.877C175.73 47.9512 172.955 48.4883 169.7 48.4883ZM197.923 27.7119V48H191.526V13.6006H199.754L214.964 40.3096C214.671 37.8356 214.524 35.5977 214.524 33.5957V13.6006H220.921V48H212.474L197.483 21.5107C197.63 22.7965 197.736 23.9603 197.801 25.002C197.882 26.0273 197.923 26.9307 197.923 27.7119Z"/>
</mask>
<path d="M12.5469 35.3779V48H5.34473V13.6006H30.7109V19.167H12.5469V29.8115H30.1494V35.3779H12.5469ZM50.2178 48.4883C47.0602 48.4883 44.391 47.9756 42.21 46.9502C40.029 45.9085 38.377 44.3949 37.2539 42.4092C36.1309 40.4072 35.5693 37.974 35.5693 35.1094V13.6006H42.7715V34.5479C42.7715 37.266 43.4144 39.333 44.7002 40.749C46.0023 42.1488 47.9066 42.8486 50.4131 42.8486C52.9847 42.8486 54.9622 42.1162 56.3457 40.6514C57.7292 39.1702 58.4209 37.0544 58.4209 34.3037V13.6006H65.623V34.7432C65.623 37.6403 65.0127 40.1143 63.792 42.165C62.5876 44.2158 60.8379 45.7865 58.543 46.877C56.248 47.9512 53.473 48.4883 50.2178 48.4883ZM78.4404 27.7119V48H72.0439V13.6006H80.2715L95.4814 40.3096C95.1885 37.8356 95.042 35.5977 95.042 33.5957V13.6006H101.438V48H92.9912L78.001 21.5107C78.1475 22.7965 78.2533 23.9603 78.3184 25.002C78.3997 26.0273 78.4404 26.9307 78.4404 27.7119ZM119.48 32.0576V38.0146H106.785V32.0576H119.48ZM132.029 35.3779V48H124.827V13.6006H150.193V19.167H132.029V29.8115H149.632V35.3779H132.029ZM169.7 48.4883C166.543 48.4883 163.873 47.9756 161.692 46.9502C159.511 45.9085 157.859 44.3949 156.736 42.4092C155.613 40.4072 155.052 37.974 155.052 35.1094V13.6006H162.254V34.5479C162.254 37.266 162.897 39.333 164.183 40.749C165.485 42.1488 167.389 42.8486 169.896 42.8486C172.467 42.8486 174.445 42.1162 175.828 40.6514C177.212 39.1702 177.903 37.0544 177.903 34.3037V13.6006H185.105V34.7432C185.105 37.6403 184.495 40.1143 183.274 42.165C182.07 44.2158 180.32 45.7865 178.025 46.877C175.73 47.9512 172.955 48.4883 169.7 48.4883ZM197.923 27.7119V48H191.526V13.6006H199.754L214.964 40.3096C214.671 37.8356 214.524 35.5977 214.524 33.5957V13.6006H220.921V48H212.474L197.483 21.5107C197.63 22.7965 197.736 23.9603 197.801 25.002C197.882 26.0273 197.923 26.9307 197.923 27.7119Z" fill="url(#paint0_linear_558_5349)"/>
<path d="M12.5469 35.3779V34.3779H11.5469V35.3779H12.5469ZM12.5469 48V49H13.5469V48H12.5469ZM5.34473 48H4.34473V49H5.34473V48ZM5.34473 13.6006V12.6006H4.34473V13.6006H5.34473ZM30.7109 13.6006H31.7109V12.6006H30.7109V13.6006ZM30.7109 19.167V20.167H31.7109V19.167H30.7109ZM12.5469 19.167V18.167H11.5469V19.167H12.5469ZM12.5469 29.8115H11.5469V30.8115H12.5469V29.8115ZM30.1494 29.8115H31.1494V28.8115H30.1494V29.8115ZM30.1494 35.3779V36.3779H31.1494V35.3779H30.1494ZM11.5469 35.3779V48H13.5469V35.3779H11.5469ZM12.5469 47H5.34473V49H12.5469V47ZM6.34473 48V13.6006H4.34473V48H6.34473ZM5.34473 14.6006H30.7109V12.6006H5.34473V14.6006ZM29.7109 13.6006V19.167H31.7109V13.6006H29.7109ZM30.7109 18.167H12.5469V20.167H30.7109V18.167ZM11.5469 19.167V29.8115H13.5469V19.167H11.5469ZM12.5469 30.8115H30.1494V28.8115H12.5469V30.8115ZM29.1494 29.8115V35.3779H31.1494V29.8115H29.1494ZM30.1494 34.3779H12.5469V36.3779H30.1494V34.3779ZM42.21 46.9502L41.779 47.8526L41.7845 47.8552L42.21 46.9502ZM37.2539 42.4092L36.3818 42.8984L36.3835 42.9015L37.2539 42.4092ZM35.5693 13.6006V12.6006H34.5693V13.6006H35.5693ZM42.7715 13.6006H43.7715V12.6006H42.7715V13.6006ZM44.7002 40.749L43.9598 41.4213L43.968 41.4301L44.7002 40.749ZM56.3457 40.6514L57.0727 41.338L57.0765 41.334L56.3457 40.6514ZM58.4209 13.6006V12.6006H57.4209V13.6006H58.4209ZM65.623 13.6006H66.623V12.6006H65.623V13.6006ZM63.792 42.165L62.9327 41.6535L62.9297 41.6586L63.792 42.165ZM58.543 46.877L58.9669 47.7827L58.9722 47.7802L58.543 46.877ZM50.2178 47.4883C47.1636 47.4883 44.6487 46.9918 42.6354 46.0452L41.7845 47.8552C44.1332 48.9594 46.9568 49.4883 50.2178 49.4883V47.4883ZM42.6409 46.0478C40.6334 45.089 39.1402 43.7131 38.1243 41.9169L36.3835 42.9015C37.6137 45.0766 39.4246 46.7281 41.779 47.8526L42.6409 46.0478ZM38.126 41.9199C37.1052 40.1001 36.5693 37.8445 36.5693 35.1094H34.5693C34.5693 38.1034 35.1565 40.7143 36.3818 42.8984L38.126 41.9199ZM36.5693 35.1094V13.6006H34.5693V35.1094H36.5693ZM35.5693 14.6006H42.7715V12.6006H35.5693V14.6006ZM41.7715 13.6006V34.5479H43.7715V13.6006H41.7715ZM41.7715 34.5479C41.7715 37.4104 42.4481 39.7565 43.9599 41.4213L45.4405 40.0768C44.3806 38.9096 43.7715 37.1215 43.7715 34.5479H41.7715ZM43.968 41.4301C45.5134 43.0914 47.7197 43.8486 50.4131 43.8486V41.8486C48.0935 41.8486 46.4912 41.2062 45.4324 40.0679L43.968 41.4301ZM50.4131 43.8486C53.1794 43.8486 55.4514 43.0547 57.0727 41.338L55.6187 39.9647C54.4731 41.1778 52.79 41.8486 50.4131 41.8486V43.8486ZM57.0765 41.334C58.6869 39.6099 59.4209 37.2158 59.4209 34.3037H57.4209C57.4209 36.8929 56.7714 38.7306 55.6149 39.9688L57.0765 41.334ZM59.4209 34.3037V13.6006H57.4209V34.3037H59.4209ZM58.4209 14.6006H65.623V12.6006H58.4209V14.6006ZM64.623 13.6006V34.7432H66.623V13.6006H64.623ZM64.623 34.7432C64.623 37.4988 64.0434 39.7875 62.9327 41.6536L64.6513 42.6765C65.982 40.441 66.623 37.7818 66.623 34.7432H64.623ZM62.9297 41.6586C61.8337 43.5248 60.2409 44.963 58.1138 45.9737L58.9722 47.7802C61.4349 46.6099 63.3414 44.9069 64.6543 42.6715L62.9297 41.6586ZM58.119 45.9713C55.9889 46.9683 53.3667 47.4883 50.2178 47.4883V49.4883C53.5793 49.4883 56.5071 48.934 58.9669 47.7826L58.119 45.9713ZM78.4404 48V49H79.4404V48H78.4404ZM72.0439 48H71.0439V49H72.0439V48ZM72.0439 13.6006V12.6006H71.0439V13.6006H72.0439ZM80.2715 13.6006L81.1405 13.1057L80.8528 12.6006H80.2715V13.6006ZM95.4814 40.3096L94.6125 40.8044L96.4745 40.192L95.4814 40.3096ZM95.042 13.6006V12.6006H94.042V13.6006H95.042ZM101.438 13.6006H102.438V12.6006H101.438V13.6006ZM101.438 48V49H102.438V48H101.438ZM92.9912 48L92.1209 48.4925L92.4081 49H92.9912V48ZM78.001 21.5107L78.8713 21.0182L77.0074 21.6239L78.001 21.5107ZM78.3184 25.002L77.3203 25.0643L77.3208 25.0727L77.3215 25.0811L78.3184 25.002ZM77.4404 27.7119V48H79.4404V27.7119H77.4404ZM78.4404 47H72.0439V49H78.4404V47ZM73.0439 48V13.6006H71.0439V48H73.0439ZM72.0439 14.6006H80.2715V12.6006H72.0439V14.6006ZM79.4025 14.0954L94.6125 40.8044L96.3504 39.8147L81.1405 13.1057L79.4025 14.0954ZM96.4745 40.192C96.1851 37.7481 96.042 35.5502 96.042 33.5957H94.042C94.042 35.6451 94.1919 37.9232 94.4884 40.4272L96.4745 40.192ZM96.042 33.5957V13.6006H94.042V33.5957H96.042ZM95.042 14.6006H101.438V12.6006H95.042V14.6006ZM100.438 13.6006V48H102.438V13.6006H100.438ZM101.438 47H92.9912V49H101.438V47ZM93.8615 47.5075L78.8713 21.0182L77.1307 22.0032L92.1209 48.4925L93.8615 47.5075ZM77.0074 21.6239C77.1524 22.8967 77.2565 24.0431 77.3203 25.0643L79.3164 24.9396C79.25 23.8775 79.1425 22.6964 78.9945 21.3976L77.0074 21.6239ZM77.3215 25.0811C77.4014 26.0878 77.4404 26.9638 77.4404 27.7119H79.4404C79.4404 26.8975 79.3981 25.9669 79.3152 24.9228L77.3215 25.0811ZM119.48 32.0576H120.48V31.0576H119.48V32.0576ZM119.48 38.0146V39.0146H120.48V38.0146H119.48ZM106.785 38.0146H105.785V39.0146H106.785V38.0146ZM106.785 32.0576V31.0576H105.785V32.0576H106.785ZM118.48 32.0576V38.0146H120.48V32.0576H118.48ZM119.48 37.0146H106.785V39.0146H119.48V37.0146ZM107.785 38.0146V32.0576H105.785V38.0146H107.785ZM106.785 33.0576H119.48V31.0576H106.785V33.0576ZM132.029 35.3779V34.3779H131.029V35.3779H132.029ZM132.029 48V49H133.029V48H132.029ZM124.827 48H123.827V49H124.827V48ZM124.827 13.6006V12.6006H123.827V13.6006H124.827ZM150.193 13.6006H151.193V12.6006H150.193V13.6006ZM150.193 19.167V20.167H151.193V19.167H150.193ZM132.029 19.167V18.167H131.029V19.167H132.029ZM132.029 29.8115H131.029V30.8115H132.029V29.8115ZM149.632 29.8115H150.632V28.8115H149.632V29.8115ZM149.632 35.3779V36.3779H150.632V35.3779H149.632ZM131.029 35.3779V48H133.029V35.3779H131.029ZM132.029 47H124.827V49H132.029V47ZM125.827 48V13.6006H123.827V48H125.827ZM124.827 14.6006H150.193V12.6006H124.827V14.6006ZM149.193 13.6006V19.167H151.193V13.6006H149.193ZM150.193 18.167H132.029V20.167H150.193V18.167ZM131.029 19.167V29.8115H133.029V19.167H131.029ZM132.029 30.8115H149.632V28.8115H132.029V30.8115ZM148.632 29.8115V35.3779H150.632V29.8115H148.632ZM149.632 34.3779H132.029V36.3779H149.632V34.3779ZM161.692 46.9502L161.261 47.8526L161.267 47.8552L161.692 46.9502ZM156.736 42.4092L155.864 42.8984L155.866 42.9015L156.736 42.4092ZM155.052 13.6006V12.6006H154.052V13.6006H155.052ZM162.254 13.6006H163.254V12.6006H162.254V13.6006ZM164.183 40.749L163.442 41.4213L163.45 41.4301L164.183 40.749ZM175.828 40.6514L176.555 41.338L176.559 41.334L175.828 40.6514ZM177.903 13.6006V12.6006H176.903V13.6006H177.903ZM185.105 13.6006H186.105V12.6006H185.105V13.6006ZM183.274 42.165L182.415 41.6535L182.412 41.6586L183.274 42.165ZM178.025 46.877L178.449 47.7827L178.455 47.7802L178.025 46.877ZM169.7 47.4883C166.646 47.4883 164.131 46.9918 162.118 46.0452L161.267 47.8552C163.616 48.9594 166.439 49.4883 169.7 49.4883V47.4883ZM162.123 46.0478C160.116 45.089 158.623 43.7131 157.607 41.9169L155.866 42.9015C157.096 45.0766 158.907 46.7281 161.261 47.8526L162.123 46.0478ZM157.608 41.9199C156.588 40.1001 156.052 37.8445 156.052 35.1094H154.052C154.052 38.1034 154.639 40.7143 155.864 42.8984L157.608 41.9199ZM156.052 35.1094V13.6006H154.052V35.1094H156.052ZM155.052 14.6006H162.254V12.6006H155.052V14.6006ZM161.254 13.6006V34.5479H163.254V13.6006H161.254ZM161.254 34.5479C161.254 37.4104 161.931 39.7565 163.442 41.4213L164.923 40.0768C163.863 38.9096 163.254 37.1215 163.254 34.5479H161.254ZM163.45 41.4301C164.996 43.0914 167.202 43.8486 169.896 43.8486V41.8486C167.576 41.8486 165.974 41.2062 164.915 40.0679L163.45 41.4301ZM169.896 43.8486C172.662 43.8486 174.934 43.0547 176.555 41.338L175.101 39.9647C173.955 41.1778 172.272 41.8486 169.896 41.8486V43.8486ZM176.559 41.334C178.169 39.6099 178.903 37.2158 178.903 34.3037H176.903C176.903 36.8929 176.254 38.7306 175.097 39.9688L176.559 41.334ZM178.903 34.3037V13.6006H176.903V34.3037H178.903ZM177.903 14.6006H185.105V12.6006H177.903V14.6006ZM184.105 13.6006V34.7432H186.105V13.6006H184.105ZM184.105 34.7432C184.105 37.4988 183.526 39.7875 182.415 41.6536L184.134 42.6765C185.464 40.441 186.105 37.7818 186.105 34.7432H184.105ZM182.412 41.6586C181.316 43.5248 179.723 44.963 177.596 45.9737L178.455 47.7802C180.917 46.6099 182.824 44.9069 184.137 42.6715L182.412 41.6586ZM177.601 45.9713C175.471 46.9683 172.849 47.4883 169.7 47.4883V49.4883C173.062 49.4883 175.99 48.934 178.449 47.7826L177.601 45.9713ZM197.923 48V49H198.923V48H197.923ZM191.526 48H190.526V49H191.526V48ZM191.526 13.6006V12.6006H190.526V13.6006H191.526ZM199.754 13.6006L200.623 13.1057L200.335 12.6006H199.754V13.6006ZM214.964 40.3096L214.095 40.8044L215.957 40.192L214.964 40.3096ZM214.524 13.6006V12.6006H213.524V13.6006H214.524ZM220.921 13.6006H221.921V12.6006H220.921V13.6006ZM220.921 48V49H221.921V48H220.921ZM212.474 48L211.603 48.4925L211.891 49H212.474V48ZM197.483 21.5107L198.354 21.0182L196.49 21.6239L197.483 21.5107ZM197.801 25.002L196.803 25.0643L196.803 25.0727L196.804 25.0811L197.801 25.002ZM196.923 27.7119V48H198.923V27.7119H196.923ZM197.923 47H191.526V49H197.923V47ZM192.526 48V13.6006H190.526V48H192.526ZM191.526 14.6006H199.754V12.6006H191.526V14.6006ZM198.885 14.0954L214.095 40.8044L215.833 39.8147L200.623 13.1057L198.885 14.0954ZM215.957 40.192C215.668 37.7481 215.524 35.5502 215.524 33.5957H213.524C213.524 35.6451 213.674 37.9232 213.971 40.4272L215.957 40.192ZM215.524 33.5957V13.6006H213.524V33.5957H215.524ZM214.524 14.6006H220.921V12.6006H214.524V14.6006ZM219.921 13.6006V48H221.921V13.6006H219.921ZM220.921 47H212.474V49H220.921V47ZM213.344 47.5075L198.354 21.0182L196.613 22.0032L211.603 48.4925L213.344 47.5075ZM196.49 21.6239C196.635 22.8967 196.739 24.0431 196.803 25.0643L198.799 24.9396C198.732 23.8775 198.625 22.6964 198.477 21.3976L196.49 21.6239ZM196.804 25.0811C196.884 26.0878 196.923 26.9638 196.923 27.7119H198.923C198.923 26.8975 198.881 25.9669 198.798 24.9228L196.804 25.0811Z" fill="url(#paint1_linear_558_5349)" mask="url(#path-1-outside-1_558_5349)"/>
<mask id="path-3-outside-2_558_5349" maskUnits="userSpaceOnUse" x="2" y="10" width="218" height="38" fill="black">
<rect fill="white" x="2" y="10" width="218" height="38"/>
<path d="M10.5469 33.3779V46H3.34473V11.6006H28.7109V17.167H10.5469V27.8115H28.1494V33.3779H10.5469ZM48.2178 46.4883C45.0602 46.4883 42.391 45.9756 40.21 44.9502C38.029 43.9085 36.377 42.3949 35.2539 40.4092C34.1309 38.4072 33.5693 35.974 33.5693 33.1094V11.6006H40.7715V32.5479C40.7715 35.266 41.4144 37.333 42.7002 38.749C44.0023 40.1488 45.9066 40.8486 48.4131 40.8486C50.9847 40.8486 52.9622 40.1162 54.3457 38.6514C55.7292 37.1702 56.4209 35.0544 56.4209 32.3037V11.6006H63.623V32.7432C63.623 35.6403 63.0127 38.1143 61.792 40.165C60.5876 42.2158 58.8379 43.7865 56.543 44.877C54.248 45.9512 51.473 46.4883 48.2178 46.4883ZM76.4404 25.7119V46H70.0439V11.6006H78.2715L93.4814 38.3096C93.1885 35.8356 93.042 33.5977 93.042 31.5957V11.6006H99.4385V46H90.9912L76.001 19.5107C76.1475 20.7965 76.2533 21.9603 76.3184 23.002C76.3997 24.0273 76.4404 24.9307 76.4404 25.7119ZM117.48 30.0576V36.0146H104.785V30.0576H117.48ZM130.029 33.3779V46H122.827V11.6006H148.193V17.167H130.029V27.8115H147.632V33.3779H130.029ZM167.7 46.4883C164.543 46.4883 161.873 45.9756 159.692 44.9502C157.511 43.9085 155.859 42.3949 154.736 40.4092C153.613 38.4072 153.052 35.974 153.052 33.1094V11.6006H160.254V32.5479C160.254 35.266 160.897 37.333 162.183 38.749C163.485 40.1488 165.389 40.8486 167.896 40.8486C170.467 40.8486 172.445 40.1162 173.828 38.6514C175.212 37.1702 175.903 35.0544 175.903 32.3037V11.6006H183.105V32.7432C183.105 35.6403 182.495 38.1143 181.274 40.165C180.07 42.2158 178.32 43.7865 176.025 44.877C173.73 45.9512 170.955 46.4883 167.7 46.4883ZM195.923 25.7119V46H189.526V11.6006H197.754L212.964 38.3096C212.671 35.8356 212.524 33.5977 212.524 31.5957V11.6006H218.921V46H210.474L195.483 19.5107C195.63 20.7965 195.736 21.9603 195.801 23.002C195.882 24.0273 195.923 24.9307 195.923 25.7119Z"/>
</mask>
<path d="M10.5469 33.3779V32.3779H9.54688V33.3779H10.5469ZM10.5469 46V47H11.5469V46H10.5469ZM3.34473 46H2.34473V47H3.34473V46ZM3.34473 11.6006V10.6006H2.34473V11.6006H3.34473ZM28.7109 11.6006H29.7109V10.6006H28.7109V11.6006ZM28.7109 17.167V18.167H29.7109V17.167H28.7109ZM10.5469 17.167V16.167H9.54688V17.167H10.5469ZM10.5469 27.8115H9.54688V28.8115H10.5469V27.8115ZM28.1494 27.8115H29.1494V26.8115H28.1494V27.8115ZM28.1494 33.3779V34.3779H29.1494V33.3779H28.1494ZM9.54688 33.3779V46H11.5469V33.3779H9.54688ZM10.5469 45H3.34473V47H10.5469V45ZM4.34473 46V11.6006H2.34473V46H4.34473ZM3.34473 12.6006H28.7109V10.6006H3.34473V12.6006ZM27.7109 11.6006V17.167H29.7109V11.6006H27.7109ZM28.7109 16.167H10.5469V18.167H28.7109V16.167ZM9.54688 17.167V27.8115H11.5469V17.167H9.54688ZM10.5469 28.8115H28.1494V26.8115H10.5469V28.8115ZM27.1494 27.8115V33.3779H29.1494V27.8115H27.1494ZM28.1494 32.3779H10.5469V34.3779H28.1494V32.3779ZM40.21 44.9502L39.779 45.8526L39.7845 45.8552L40.21 44.9502ZM35.2539 40.4092L34.3818 40.8984L34.3835 40.9015L35.2539 40.4092ZM33.5693 11.6006V10.6006H32.5693V11.6006H33.5693ZM40.7715 11.6006H41.7715V10.6006H40.7715V11.6006ZM42.7002 38.749L41.9598 39.4213L41.968 39.4301L42.7002 38.749ZM54.3457 38.6514L55.0727 39.338L55.0765 39.334L54.3457 38.6514ZM56.4209 11.6006V10.6006H55.4209V11.6006H56.4209ZM63.623 11.6006H64.623V10.6006H63.623V11.6006ZM61.792 40.165L60.9327 39.6535L60.9297 39.6586L61.792 40.165ZM56.543 44.877L56.9669 45.7827L56.9722 45.7802L56.543 44.877ZM48.2178 45.4883C45.1636 45.4883 42.6487 44.9918 40.6354 44.0452L39.7845 45.8552C42.1332 46.9594 44.9568 47.4883 48.2178 47.4883V45.4883ZM40.6409 44.0478C38.6334 43.089 37.1402 41.7131 36.1243 39.9169L34.3835 40.9015C35.6137 43.0766 37.4246 44.7281 39.779 45.8526L40.6409 44.0478ZM36.126 39.9199C35.1052 38.1001 34.5693 35.8445 34.5693 33.1094H32.5693C32.5693 36.1034 33.1565 38.7143 34.3818 40.8984L36.126 39.9199ZM34.5693 33.1094V11.6006H32.5693V33.1094H34.5693ZM33.5693 12.6006H40.7715V10.6006H33.5693V12.6006ZM39.7715 11.6006V32.5479H41.7715V11.6006H39.7715ZM39.7715 32.5479C39.7715 35.4104 40.4481 37.7565 41.9599 39.4213L43.4405 38.0768C42.3806 36.9096 41.7715 35.1215 41.7715 32.5479H39.7715ZM41.968 39.4301C43.5134 41.0914 45.7197 41.8486 48.4131 41.8486V39.8486C46.0935 39.8486 44.4912 39.2062 43.4324 38.0679L41.968 39.4301ZM48.4131 41.8486C51.1794 41.8486 53.4514 41.0547 55.0727 39.338L53.6187 37.9647C52.4731 39.1778 50.79 39.8486 48.4131 39.8486V41.8486ZM55.0765 39.334C56.6869 37.6099 57.4209 35.2158 57.4209 32.3037H55.4209C55.4209 34.8929 54.7714 36.7306 53.6149 37.9688L55.0765 39.334ZM57.4209 32.3037V11.6006H55.4209V32.3037H57.4209ZM56.4209 12.6006H63.623V10.6006H56.4209V12.6006ZM62.623 11.6006V32.7432H64.623V11.6006H62.623ZM62.623 32.7432C62.623 35.4988 62.0434 37.7875 60.9327 39.6536L62.6513 40.6765C63.982 38.441 64.623 35.7818 64.623 32.7432H62.623ZM60.9297 39.6586C59.8337 41.5248 58.2409 42.963 56.1138 43.9737L56.9722 45.7802C59.4349 44.6099 61.3414 42.9069 62.6543 40.6715L60.9297 39.6586ZM56.119 43.9713C53.9889 44.9683 51.3667 45.4883 48.2178 45.4883V47.4883C51.5793 47.4883 54.5071 46.934 56.9669 45.7826L56.119 43.9713ZM76.4404 46V47H77.4404V46H76.4404ZM70.0439 46H69.0439V47H70.0439V46ZM70.0439 11.6006V10.6006H69.0439V11.6006H70.0439ZM78.2715 11.6006L79.1405 11.1057L78.8528 10.6006H78.2715V11.6006ZM93.4814 38.3096L92.6125 38.8044L94.4745 38.192L93.4814 38.3096ZM93.042 11.6006V10.6006H92.042V11.6006H93.042ZM99.4385 11.6006H100.438V10.6006H99.4385V11.6006ZM99.4385 46V47H100.438V46H99.4385ZM90.9912 46L90.1209 46.4925L90.4081 47H90.9912V46ZM76.001 19.5107L76.8713 19.0182L75.0074 19.6239L76.001 19.5107ZM76.3184 23.002L75.3203 23.0643L75.3208 23.0727L75.3215 23.0811L76.3184 23.002ZM75.4404 25.7119V46H77.4404V25.7119H75.4404ZM76.4404 45H70.0439V47H76.4404V45ZM71.0439 46V11.6006H69.0439V46H71.0439ZM70.0439 12.6006H78.2715V10.6006H70.0439V12.6006ZM77.4025 12.0954L92.6125 38.8044L94.3504 37.8147L79.1405 11.1057L77.4025 12.0954ZM94.4745 38.192C94.1851 35.7481 94.042 33.5502 94.042 31.5957H92.042C92.042 33.6451 92.1919 35.9232 92.4884 38.4272L94.4745 38.192ZM94.042 31.5957V11.6006H92.042V31.5957H94.042ZM93.042 12.6006H99.4385V10.6006H93.042V12.6006ZM98.4385 11.6006V46H100.438V11.6006H98.4385ZM99.4385 45H90.9912V47H99.4385V45ZM91.8615 45.5075L76.8713 19.0182L75.1307 20.0032L90.1209 46.4925L91.8615 45.5075ZM75.0074 19.6239C75.1524 20.8967 75.2565 22.0431 75.3203 23.0643L77.3164 22.9396C77.25 21.8775 77.1425 20.6964 76.9945 19.3976L75.0074 19.6239ZM75.3215 23.0811C75.4014 24.0878 75.4404 24.9638 75.4404 25.7119H77.4404C77.4404 24.8975 77.3981 23.9669 77.3152 22.9228L75.3215 23.0811ZM117.48 30.0576H118.48V29.0576H117.48V30.0576ZM117.48 36.0146V37.0146H118.48V36.0146H117.48ZM104.785 36.0146H103.785V37.0146H104.785V36.0146ZM104.785 30.0576V29.0576H103.785V30.0576H104.785ZM116.48 30.0576V36.0146H118.48V30.0576H116.48ZM117.48 35.0146H104.785V37.0146H117.48V35.0146ZM105.785 36.0146V30.0576H103.785V36.0146H105.785ZM104.785 31.0576H117.48V29.0576H104.785V31.0576ZM130.029 33.3779V32.3779H129.029V33.3779H130.029ZM130.029 46V47H131.029V46H130.029ZM122.827 46H121.827V47H122.827V46ZM122.827 11.6006V10.6006H121.827V11.6006H122.827ZM148.193 11.6006H149.193V10.6006H148.193V11.6006ZM148.193 17.167V18.167H149.193V17.167H148.193ZM130.029 17.167V16.167H129.029V17.167H130.029ZM130.029 27.8115H129.029V28.8115H130.029V27.8115ZM147.632 27.8115H148.632V26.8115H147.632V27.8115ZM147.632 33.3779V34.3779H148.632V33.3779H147.632ZM129.029 33.3779V46H131.029V33.3779H129.029ZM130.029 45H122.827V47H130.029V45ZM123.827 46V11.6006H121.827V46H123.827ZM122.827 12.6006H148.193V10.6006H122.827V12.6006ZM147.193 11.6006V17.167H149.193V11.6006H147.193ZM148.193 16.167H130.029V18.167H148.193V16.167ZM129.029 17.167V27.8115H131.029V17.167H129.029ZM130.029 28.8115H147.632V26.8115H130.029V28.8115ZM146.632 27.8115V33.3779H148.632V27.8115H146.632ZM147.632 32.3779H130.029V34.3779H147.632V32.3779ZM159.692 44.9502L159.261 45.8526L159.267 45.8552L159.692 44.9502ZM154.736 40.4092L153.864 40.8984L153.866 40.9015L154.736 40.4092ZM153.052 11.6006V10.6006H152.052V11.6006H153.052ZM160.254 11.6006H161.254V10.6006H160.254V11.6006ZM162.183 38.749L161.442 39.4213L161.45 39.4301L162.183 38.749ZM173.828 38.6514L174.555 39.338L174.559 39.334L173.828 38.6514ZM175.903 11.6006V10.6006H174.903V11.6006H175.903ZM183.105 11.6006H184.105V10.6006H183.105V11.6006ZM181.274 40.165L180.415 39.6535L180.412 39.6586L181.274 40.165ZM176.025 44.877L176.449 45.7827L176.455 45.7802L176.025 44.877ZM167.7 45.4883C164.646 45.4883 162.131 44.9918 160.118 44.0452L159.267 45.8552C161.616 46.9594 164.439 47.4883 167.7 47.4883V45.4883ZM160.123 44.0478C158.116 43.089 156.623 41.7131 155.607 39.9169L153.866 40.9015C155.096 43.0766 156.907 44.7281 159.261 45.8526L160.123 44.0478ZM155.608 39.9199C154.588 38.1001 154.052 35.8445 154.052 33.1094H152.052C152.052 36.1034 152.639 38.7143 153.864 40.8984L155.608 39.9199ZM154.052 33.1094V11.6006H152.052V33.1094H154.052ZM153.052 12.6006H160.254V10.6006H153.052V12.6006ZM159.254 11.6006V32.5479H161.254V11.6006H159.254ZM159.254 32.5479C159.254 35.4104 159.931 37.7565 161.442 39.4213L162.923 38.0768C161.863 36.9096 161.254 35.1215 161.254 32.5479H159.254ZM161.45 39.4301C162.996 41.0914 165.202 41.8486 167.896 41.8486V39.8486C165.576 39.8486 163.974 39.2062 162.915 38.0679L161.45 39.4301ZM167.896 41.8486C170.662 41.8486 172.934 41.0547 174.555 39.338L173.101 37.9647C171.955 39.1778 170.272 39.8486 167.896 39.8486V41.8486ZM174.559 39.334C176.169 37.6099 176.903 35.2158 176.903 32.3037H174.903C174.903 34.8929 174.254 36.7306 173.097 37.9688L174.559 39.334ZM176.903 32.3037V11.6006H174.903V32.3037H176.903ZM175.903 12.6006H183.105V10.6006H175.903V12.6006ZM182.105 11.6006V32.7432H184.105V11.6006H182.105ZM182.105 32.7432C182.105 35.4988 181.526 37.7875 180.415 39.6536L182.134 40.6765C183.464 38.441 184.105 35.7818 184.105 32.7432H182.105ZM180.412 39.6586C179.316 41.5248 177.723 42.963 175.596 43.9737L176.455 45.7802C178.917 44.6099 180.824 42.9069 182.137 40.6715L180.412 39.6586ZM175.601 43.9713C173.471 44.9683 170.849 45.4883 167.7 45.4883V47.4883C171.062 47.4883 173.99 46.934 176.449 45.7826L175.601 43.9713ZM195.923 46V47H196.923V46H195.923ZM189.526 46H188.526V47H189.526V46ZM189.526 11.6006V10.6006H188.526V11.6006H189.526ZM197.754 11.6006L198.623 11.1057L198.335 10.6006H197.754V11.6006ZM212.964 38.3096L212.095 38.8044L213.957 38.192L212.964 38.3096ZM212.524 11.6006V10.6006H211.524V11.6006H212.524ZM218.921 11.6006H219.921V10.6006H218.921V11.6006ZM218.921 46V47H219.921V46H218.921ZM210.474 46L209.603 46.4925L209.891 47H210.474V46ZM195.483 19.5107L196.354 19.0182L194.49 19.6239L195.483 19.5107ZM195.801 23.002L194.803 23.0643L194.803 23.0727L194.804 23.0811L195.801 23.002ZM194.923 25.7119V46H196.923V25.7119H194.923ZM195.923 45H189.526V47H195.923V45ZM190.526 46V11.6006H188.526V46H190.526ZM189.526 12.6006H197.754V10.6006H189.526V12.6006ZM196.885 12.0954L212.095 38.8044L213.833 37.8147L198.623 11.1057L196.885 12.0954ZM213.957 38.192C213.668 35.7481 213.524 33.5502 213.524 31.5957H211.524C211.524 33.6451 211.674 35.9232 211.971 38.4272L213.957 38.192ZM213.524 31.5957V11.6006H211.524V31.5957H213.524ZM212.524 12.6006H218.921V10.6006H212.524V12.6006ZM217.921 11.6006V46H219.921V11.6006H217.921ZM218.921 45H210.474V47H218.921V45ZM211.344 45.5075L196.354 19.0182L194.613 20.0032L209.603 46.4925L211.344 45.5075ZM194.49 19.6239C194.635 20.8967 194.739 22.0431 194.803 23.0643L196.799 22.9396C196.732 21.8775 196.625 20.6964 196.477 19.3976L194.49 19.6239ZM194.804 23.0811C194.884 24.0878 194.923 24.9638 194.923 25.7119H196.923C196.923 24.8975 196.881 23.9669 196.798 22.9228L194.804 23.0811Z" fill="#7142A6" mask="url(#path-3-outside-2_558_5349)"/>
<defs>
<linearGradient id="paint0_linear_558_5349" x1="116.176" y1="59" x2="0.973546" y2="13.5508" gradientUnits="userSpaceOnUse">
<stop stop-color="#7158E2"/>
<stop offset="1" stop-color="#CD84F1"/>
</linearGradient>
<linearGradient id="paint1_linear_558_5349" x1="116.176" y1="59" x2="0.973546" y2="13.5508" gradientUnits="userSpaceOnUse">
<stop stop-color="#7158E2"/>
<stop offset="1" stop-color="#CD84F1"/>
</linearGradient>
</defs>
</svg>
