<svg width="28" height="24" viewBox="0 0 28 24" fill="none" xmlns="http://www.w3.org/2000/svg">
<path d="M19.4075 17.0245C20.6345 16.3425 20.4755 13.7145 19.0535 11.1505C18.4435 10.0465 17.6935 9.15252 16.9435 8.52752C16.0467 9.1931 14.9604 9.55405 13.8435 9.55752C12.725 9.55505 11.6368 9.19405 10.7385 8.52752C9.98854 9.15252 9.24054 10.0475 8.62854 11.1505C7.20554 13.7135 7.04854 16.3425 8.27854 17.0245C8.82654 17.3365 9.40454 17.1025 10.0005 16.5285C9.88896 17.1469 9.83307 17.7741 9.83354 18.4025C9.83354 21.3405 10.9735 23.7145 12.3765 23.7145C13.2225 23.7145 13.6415 22.8495 13.8425 21.5265C14.0425 22.8405 14.4625 23.7145 15.3025 23.7145C16.6995 23.7145 17.8485 21.3395 17.8485 18.4025C17.8485 17.7425 17.7865 17.1125 17.6805 16.5295C18.2805 17.1045 18.8565 17.3425 19.4065 17.0265L19.4075 17.0245ZM13.8415 8.55752C14.4089 8.566 14.9723 8.46154 15.4989 8.25023C16.0255 8.03892 16.5049 7.72499 16.909 7.32669C17.3132 6.92839 17.634 6.45369 17.853 5.93021C18.072 5.40673 18.1846 4.84493 18.1844 4.2775C18.1842 3.71007 18.0712 3.14835 17.8518 2.62502C17.6325 2.10169 17.3113 1.62722 16.9069 1.2292C16.5024 0.831191 16.0229 0.51759 15.4961 0.306652C14.9694 0.095714 14.4059 -0.00834784 13.8385 0.000522966C12.7151 0.0180875 11.6437 0.476786 10.8556 1.27757C10.0676 2.07835 9.62604 3.15697 9.62643 4.2805C9.62683 5.40404 10.0691 6.48234 10.8577 7.28257C11.6464 8.0828 12.7181 8.54075 13.8415 8.55752ZM22.4355 11.2715C23.3493 11.2448 24.2168 10.863 24.8537 10.2072C25.4906 9.55142 25.8469 8.67322 25.8469 7.75902C25.8469 6.84483 25.4906 5.96662 24.8537 5.31082C24.2168 4.65501 23.3493 4.27323 22.4355 4.24652C21.5037 4.24666 20.6101 4.61695 19.9513 5.27596C19.2924 5.93496 18.9224 6.82868 18.9225 7.76052C18.9227 8.69236 19.293 9.58598 19.952 10.2448C20.611 10.9036 21.5047 11.2737 22.4365 11.2735L22.4355 11.2715ZM26.7155 13.4015C26.2135 12.4935 25.5995 11.7595 24.9835 11.2465C24.2467 11.7925 23.3546 12.0886 22.4375 12.0915C21.6815 12.0915 20.9775 11.8845 20.3615 11.5415C20.8575 12.6345 21.1645 13.7415 21.2215 14.7315C21.3155 16.2475 20.8415 17.3715 19.8935 17.8965C19.6904 18.0082 19.4695 18.0839 19.2405 18.1205C19.1835 18.5125 19.1445 18.9205 19.1445 19.3505C19.1445 21.7635 20.0795 23.7125 21.2325 23.7125C21.9265 23.7125 22.2725 23.0025 22.4365 21.9165C22.5995 22.9965 22.9445 23.7125 23.6365 23.7125C24.7815 23.7125 25.7265 21.7625 25.7265 19.3525C25.7265 18.8095 25.6735 18.2925 25.5865 17.8125C26.0785 18.2855 26.5525 18.4805 27.0045 18.2205C28.0115 17.6605 27.8815 15.5025 26.7145 13.4005L26.7155 13.4015ZM5.24754 11.2715C5.94206 11.2711 6.62087 11.0648 7.19815 10.6787C7.77544 10.2925 8.22527 9.74389 8.49078 9.10212C8.75629 8.46035 8.82555 7.75427 8.68981 7.07314C8.55408 6.39201 8.21943 5.76642 7.72819 5.27546C7.23695 4.7845 6.61117 4.45021 5.92996 4.31486C5.24875 4.17951 4.54271 4.24918 3.90109 4.51505C3.25947 4.78092 2.71109 5.23107 2.32528 5.80857C1.93946 6.38607 1.73354 7.065 1.73354 7.75952C1.7338 8.69141 2.10411 9.58506 2.76306 10.244C3.422 10.9029 4.31565 11.2733 5.24754 11.2735V11.2715ZM7.78254 17.8935C6.19054 17.0085 6.04454 14.3695 7.32654 11.5395C6.69286 11.8993 5.9772 12.0897 5.24854 12.0925C4.29254 12.0925 3.41654 11.7725 2.69854 11.2465C2.08354 11.7585 1.47054 12.4925 0.966538 13.3995C-0.200462 15.5035 -0.328462 17.6615 0.679538 18.2195C1.12954 18.4775 1.60454 18.2845 2.09354 17.8135C2.00372 18.3213 1.95855 18.8359 1.95854 19.3515C1.95854 21.7635 2.89354 23.7115 4.04654 23.7115C4.74054 23.7115 5.08654 23.0015 5.25054 21.9165C5.41554 22.9965 5.76054 23.7125 6.45054 23.7125C7.59754 23.7125 8.54054 21.7625 8.54054 19.3525C8.54054 18.9195 8.50054 18.5105 8.44354 18.1185C8.2121 18.082 7.98877 18.0056 7.78354 17.8925L7.78254 17.8935Z" fill="#7158E2"/>
</svg>
