<svg width="18" height="18" viewBox="0 0 18 18" fill="none" xmlns="http://www.w3.org/2000/svg">
<path fill-rule="evenodd" clip-rule="evenodd" d="M0 9C0 6.61305 0.948212 4.32387 2.63604 2.63604C4.32387 0.948212 6.61305 0 9 0C11.3869 0 13.6761 0.948212 15.364 2.63604C17.0518 4.32387 18 6.61305 18 9C18 11.3869 17.0518 13.6761 15.364 15.364C13.6761 17.0518 11.3869 18 9 18C6.61305 18 4.32387 17.0518 2.63604 15.364C0.948212 13.6761 0 11.3869 0 9ZM9 1.29096C7.50577 1.29101 6.04377 1.7253 4.79184 2.54101C3.53991 3.35672 2.55202 4.51868 1.94835 5.88554C1.34468 7.2524 1.15126 8.76523 1.3916 10.24C1.63195 11.7148 2.29571 13.0879 3.30213 14.1924C3.91313 13.2353 4.7555 12.4478 5.75139 11.9024C6.74729 11.3571 7.86457 11.0716 9 11.0723C10.1355 11.0715 11.2528 11.3569 12.2487 11.9023C13.2446 12.4476 14.087 13.2353 14.6979 14.1924C15.7043 13.0879 16.3681 11.7148 16.6084 10.24C16.8487 8.76523 16.6553 7.2524 16.0516 5.88554C15.448 4.51868 14.4601 3.35672 13.2082 2.54101C11.9562 1.7253 10.4942 1.29101 9 1.29096ZM13.7317 15.0865C13.2508 14.2577 12.5606 13.5699 11.7301 13.092C10.8997 12.614 9.95817 12.3627 9 12.3633C8.04183 12.3627 7.10034 12.614 6.26988 13.092C5.43943 13.5699 4.74918 14.2577 4.26831 15.0865C5.62009 16.1406 7.28583 16.7118 9 16.709C10.7829 16.709 12.4244 16.103 13.7317 15.0865ZM5.80658 7.64789C5.80658 6.80095 6.14303 5.98869 6.74191 5.38981C7.3408 4.79093 8.15305 4.45448 9 4.45448C9.84695 4.45448 10.6592 4.79093 11.2581 5.38981C11.857 5.98869 12.1934 6.80095 12.1934 7.64789C12.1934 8.49484 11.857 9.3071 11.2581 9.90598C10.6592 10.5049 9.84695 10.8413 9 10.8413C8.15305 10.8413 7.3408 10.5049 6.74191 9.90598C6.14303 9.3071 5.80658 8.49484 5.80658 7.64789ZM9 5.74543C8.75017 5.74543 8.50278 5.79464 8.27196 5.89025C8.04114 5.98586 7.83142 6.12599 7.65476 6.30265C7.4781 6.47931 7.33796 6.68904 7.24236 6.91985C7.14675 7.15067 7.09754 7.39806 7.09754 7.64789C7.09754 7.89773 7.14675 8.14512 7.24236 8.37593C7.33796 8.60675 7.4781 8.81648 7.65476 8.99314C7.83142 9.1698 8.04114 9.30993 8.27196 9.40554C8.50278 9.50115 8.75017 9.55036 9 9.55036C9.50456 9.55036 9.98846 9.34992 10.3452 8.99314C10.702 8.63636 10.9025 8.15246 10.9025 7.64789C10.9025 7.14333 10.702 6.65943 10.3452 6.30265C9.98846 5.94587 9.50456 5.74543 9 5.74543Z" fill="black"/>
</svg>
